#!OML:ASF H:\LiuWeirdWalks\Patient Classification 1\Patient 1\Session 1\male.ASF
:FULLY-SPECIFIED
:DEGREES
157
root 1.35671 17.2577 -28.2725 8.56117 4.87223 -3.19191
lowerback 15.6869 -0.152078 -6.56202
upperback 1.72528 -1.07905 3.28763
thorax -6.76975 -0.299491 7.52683
lowerneck -18.7317 0.402136 3.87261
upperneck 18.2043 0.0174177 -2.58958
head 8.78249 -0.00346848 -1.51749
rclavicle -9.19379e-016 2.37548e-014
rhumerus -37.71 -0.839025 -77.5578
rradius 42.9556
rwrist -9.4368
rhand -14.8376 -6.59121
rfingers 7.12502
rthumb 11.3214 -36.2656
lclavicle -9.19379e-016 2.37548e-014
lhumerus -31.7817 6.65607 79.9086
lradius 32.4019
lwrist 3.2698
lhand -14.8873 -4.70611
lfingers 7.12502
lthumb 11.2735 24.9709
rfemur -41.9173 -15.3072 20.7656
rtibia 69.5497
rfoot -13.8757 -15.4713
rtoes -10.7038
lfemur -22.2859 4.93651 -22.0558
ltibia 43.775
lfoot -24.3171 5.52622
ltoes -12.5541
158
root 1.35034 17.2433 -28.2461 8.58266 4.98978 -3.10233
lowerback 15.8934 -0.162398 -6.60707
upperback 1.77027 -1.11535 3.23515
thorax -6.82873 -0.315143 7.50927
lowerneck -18.7242 0.406329 3.84394
upperneck 18.0149 0.0124148 -2.50941
head 8.71636 -0.00031111 -1.48417
rclavicle 1.67476e-014 1.59028e-015
rhumerus -37.6472 -0.787715 -77.5818
rradius 43.2508
rwrist -9.52491
rhand -14.8697 -6.56982
rfingers 7.12502
rthumb 11.2904 -36.2459
lclavicle 1.67476e-014 1.59028e-015
lhumerus -31.7135 6.53453 80.0069
lradius 32.3384
lwrist 3.18626
lhand -14.8677 -4.66761
lfingers 7.12502
lthumb 11.2923 25.0084
rfemur -43.0909 -15.2292 20.8211
rtibia 68.7913
rfoot -13.9846 -15.5402
rtoes -10.6789
lfemur -22.3054 4.20471 -22.2338
ltibia 43.9495
lfoot -24.1783 6.78886
ltoes -12.55
159
root 1.34525 17.2289 -28.2186 8.60537 5.1136 -2.99986
lowerback 16.0905 -0.0605387 -6.5801
upperback 1.82645 -0.997618 3.08309
thorax -6.90075 -0.258812 7.30663
lowerneck -18.6673 0.170187 3.72721
upperneck 17.8203 -0.352223 -2.16659
head 8.62844 -0.143398 -1.39241
rclavicle -1.19271e-014 4.96962e-016
rhumerus -37.7065 -1.2093 -77.5871
rradius 43.6048
rwrist -9.57371
rhand -14.8889 -6.52011
rfingers 7.12502
rthumb 11.2719 -36.1973
lclavicle -1.19271e-014 4.96962e-016
lhumerus -31.4975 5.94853 80.1385
lradius 32.2559
lwrist 3.16889
lhand -14.8319 -4.62914
lfingers 7.12502
lthumb 11.3269 25.045
rfemur -44.237 -15.1397 20.8348
rtibia 67.9764
rfoot -14.0263 -15.5624
rtoes -10.6843
lfemur -22.3019 3.30889 -22.4409
ltibia 44.1005
lfoot -23.9896 8.23576
ltoes -12.4213
160
root 1.34148 17.2144 -28.1904 8.63037 5.24328 -2.89481
lowerback 16.2816 0.090571 -6.50202
upperback 1.8918 -0.808963 2.88489
thorax -6.97211 -0.170511 7.00716
lowerneck -18.5634 -0.166125 3.59733
upperneck 17.5728 -0.868216 -1.72525
head 8.51256 -0.348992 -1.28318
rclavicle 1.94809e-014 1.21259e-014
rhumerus -37.824 -1.84843 -77.5798
rradius 43.9948
rwrist -9.61513
rhand -14.9115 -6.48155
rfingers 7.12502
rthumb 11.2502 -36.1599
lclavicle 1.94809e-014 1.21259e-014
lhumerus -31.1907 5.14009 80.2897
lradius 32.1529
lwrist 3.19236
lhand -14.7702 -4.58415
lfingers 7.12502
lthumb 11.3863 25.0867
rfemur -45.3585 -15.0381 20.8197
rtibia 67.1102
rfoot -13.9964 -15.549
rtoes -10.7161
lfemur -22.2773 2.2536 -22.6608
ltibia 44.2368
lfoot -23.7694 9.81463
ltoes -12.1372
161
root 1.33926 17.199 -28.1616 8.65677 5.3641 -2.7764
lowerback 16.473 0.277681 -6.3972
upperback 1.94074 -0.571413 2.64903
thorax -7.06806 -0.0584517 6.63967
lowerneck -18.3669 -0.546044 3.50053
upperneck 17.2873 -1.45722 -1.23356
head 8.36966 -0.583087 -1.16998
rclavicle 7.00716e-015 -3.77691e-015
rhumerus -38.0331 -2.63042 -77.5605
rradius 44.4061
rwrist -9.64865
rhand -14.935 -6.40407
rfingers 7.12502
rthumb 11.2274 -36.0836
lclavicle 7.00716e-015 -3.77691e-015
lhumerus -30.8737 4.17761 80.4454
lradius 32.038
lwrist 3.24221
lhand -14.6987 -4.50925
lfingers 7.12502
lthumb 11.4554 25.1578
rfemur -46.4607 -14.9187 20.7601
rtibia 66.2046
rfoot -13.908 -15.5021
rtoes -10.7456
lfemur -22.2335 1.05304 -22.9039
ltibia 44.3705
lfoot -23.5269 11.4976
ltoes -11.724
162
root 1.33788 17.1829 -28.1331 8.6888 5.47361 -2.66205
lowerback 16.6489 0.390354 -6.33326
upperback 1.99762 -0.432428 2.49327
thorax -7.12735 0.0059231 6.40422
lowerneck -18.2425 -0.775451 3.43982
upperneck 17.0105 -1.8079 -0.943518
head 8.24939 -0.725383 -1.10153
rclavicle 7.85199e-015 -8.74653e-015
rhumerus -38.1412 -3.09797 -77.5163
rradius 44.7806
rwrist -9.70386
rhand -14.9609 -6.32752
rfingers 7.12502
rthumb 11.2025 -36.0084
lclavicle 7.85199e-015 -8.74653e-015
lhumerus -30.6119 3.56773 80.6171
lradius 31.9332
lwrist 3.25149
lhand -14.636 -4.44501
lfingers 7.12502
lthumb 11.5158 25.2187
rfemur -47.5515 -14.7643 20.68
rtibia 65.2648
rfoot -13.7414 -15.4424
rtoes -10.8021
lfemur -22.1886 -0.256855 -23.1422
ltibia 44.5169
lfoot -23.289 13.2185
ltoes -11.1801
163
root 1.33748 17.1651 -28.1046 8.72038 5.55682 -2.53703
lowerback 16.8408 0.400486 -6.36623
upperback 2.04051 -0.439069 2.4476
thorax -7.18528 0.00427072 6.37864
lowerneck -18.1507 -0.785047 3.42657
upperneck 16.7242 -1.81404 -0.929544
head 8.13713 -0.731692 -1.09184
rclavicle -8.89561e-015 -9.74045e-015
rhumerus -38.141 -3.08952 -77.4529
rradius 45.1074
rwrist -9.81263
rhand -14.9896 -6.26117
rfingers 7.12502
rthumb 11.1748 -35.9436
lclavicle -8.89561e-015 -9.74045e-015
lhumerus -30.4871 3.48398 80.7952
lradius 31.8493
lwrist 3.17661
lhand -14.5893 -4.39511
lfingers 7.12502
lthumb 11.5608 25.266
rfemur -48.6271 -14.5779 20.5625
rtibia 64.297
rfoot -13.5299 -15.3754
rtoes -10.8456
lfemur -22.1375 -1.62538 -23.3924
ltibia 44.6906
lfoot -23.0727 14.9255
ltoes -10.5097
164
root 1.33714 17.1458 -28.0756 8.75724 5.59976 -2.43169
lowerback 17.0431 0.416926 -6.39715
upperback 2.08659 -0.436783 2.41496
thorax -7.24671 0.00713885 6.36437
lowerneck -18.0779 -0.783454 3.40273
upperneck 16.4049 -1.80228 -0.916858
head 8.01802 -0.730757 -1.07861
rclavicle 1.799e-014 4.57205e-015
rhumerus -38.0982 -3.06712 -77.3854
rradius 45.4102
rwrist -9.93071
rhand -15.025 -6.23052
rfingers 7.12502
rthumb 11.1406 -35.9148
lclavicle 1.799e-014 4.57205e-015
lhumerus -30.3326 3.46747 80.9773
lradius 31.7562
lwrist 3.08321
lhand -14.5635 -4.352
lfingers 7.12502
lthumb 11.5857 25.3077
rfemur -49.6913 -14.3192 20.4403
rtibia 63.3044
rfoot -13.3146 -15.3131
rtoes -10.8224
lfemur -22.0985 -2.98702 -23.6152
ltibia 44.9024
lfoot -22.9049 16.5573
ltoes -9.72754
165
root 1.3369 17.1244 -28.046 8.79509 5.59281 -2.34503
lowerback 17.2394 0.448656 -6.41909
upperback 2.1391 -0.412045 2.38695
thorax -7.30125 0.0202009 6.34452
lowerneck -18.0382 -0.784993 3.35634
upperneck 16.0931 -1.7937 -0.886518
head 7.90786 -0.730739 -1.05664
rclavicle 1.05356e-014 1.64991e-014
rhumerus -38.0316 -3.05397 -77.3151
rradius 45.7029
rwrist -10.0556
rhand -15.0625 -6.23738
rfingers 7.12502
rthumb 11.1045 -35.9236
lclavicle 1.05356e-014 1.64991e-014
lhumerus -30.1608 3.49078 81.1645
lradius 31.6764
lwrist 2.98969
lhand -14.5508 -4.30601
lfingers 7.12502
lthumb 11.598 25.353
rfemur -50.7393 -13.9894 20.3113
rtibia 62.2893
rfoot -13.0893 -15.2589
rtoes -10.7789
lfemur -22.0766 -4.26777 -23.8156
ltibia 45.1576
lfoot -22.7828 18.0775
ltoes -8.89768
166
root 1.33587 17.1016 -28.015 8.82395 5.54396 -2.28358
lowerback 17.4327 0.491217 -6.44045
upperback 2.19832 -0.37198 2.36928
thorax -7.34895 0.0403083 6.33183
lowerneck -18.0011 -0.779238 3.2945
upperneck 15.7652 -1.77344 -0.844007
head 7.79361 -0.725027 -1.02674
rclavicle -3.72721e-015 -2.18663e-015
rhumerus -37.9412 -3.03596 -77.2462
rradius 45.9774
rwrist -10.2018
rhand -15.1007 -6.27521
rfingers 7.12502
rthumb 11.0677 -35.9634
lclavicle -3.72721e-015 -2.18663e-015
lhumerus -29.9833 3.54337 81.3569
lradius 31.6206
lwrist 2.92323
lhand -14.5482 -4.26063
lfingers 7.12502
lthumb 11.6005 25.3983
rfemur -51.7508 -13.59 20.1825
rtibia 61.2512
rfoot -12.8677 -15.2186
rtoes -10.7139
lfemur -22.0604 -5.41829 -23.9839
ltibia 45.4548
lfoot -22.7221 19.4496
ltoes -8.07558
